<?xml version="1.0" encoding="UTF-8"?><svg id="a" xmlns="http://www.w3.org/2000/svg" viewBox="0 0 800 600.7"><path d="M111.39,500.19c61.3-98.7,122.34-196.97,183.64-295.66,6.83,5.78,13.37,11.32,20.13,17.05,32.02-51.8,63.93-103.42,96.23-155.68,43.5,70.4,86.72,140.35,130.17,210.67,4.51-8.78,8.86-17.25,13.48-26.26,15.76,34.02,31.33,67.64,47.11,101.73,4.9-3.67,9.6-7.19,14.76-11.06,33.55,52.96,67.07,105.87,100.86,159.2H111.39Zm562.05-23.77c-20.76-32.93-41.16-65.3-61.66-97.83-6.11,4.46-11.96,8.74-18.02,13.17-13.76-29.78-27.37-59.22-41.22-89.18-9.03,17.39-17.71,34.09-26.52,51.05-5.81-4.48-11.4-8.78-17.28-13.31-8.35,17.55-16.56,34.79-24.86,52.24-6.21-4.75-12.03-9.19-18.2-13.9-19.69,32.65-39.24,65.06-58.96,97.77h266.72Zm-398.41-155.15c10.19,20.06,20.06,39.51,30.15,59.36,25.14-56.14,50.06-111.76,75.31-168.13,7.71,23.08,15.21,45.53,22.88,68.48,15.29-34.54,30.4-68.65,45.71-103.24,1.6,3.89,2.95,7.46,4.52,10.93,17.08,37.64,34.2,75.26,51.33,112.88,.42,.93,.99,1.92,1.77,2.55,4.06,3.28,8.2,6.44,12.48,9.78,1.68-3.15,3.01-6.28,4.9-9.03,2.67-3.89,2.1-6.99-.36-10.96-37.02-59.54-73.85-119.19-110.73-178.82-.51-.83-1.06-1.64-1.82-2.81-30.56,49.54-60.86,98.66-91.29,147.99-6.88-5.85-13.33-11.33-20.05-17.04-1.1,1.67-2.08,3.08-2.98,4.54-19.44,31.39-38.89,62.77-58.23,94.21-.62,1.01-.63,2.9-.13,4.02,3.95,8.94,8.09,17.81,12.19,26.68,.35,.75,.8,1.45,1.45,2.63,7.71-18.17,15.19-35.83,22.91-54.02Zm173.86-83.42c-16.21,36.58-32.24,72.75-48.66,109.79-7.73-23.43-15.14-45.94-22.74-68.99-1.01,2.04-1.78,3.46-2.44,4.94-18.17,40.57-36.34,81.13-54.42,121.74-.51,1.15-.52,2.97,.04,4.08,10.88,21.64,21.9,43.2,32.79,64.84,.95,1.9,2.11,2.37,4.07,2.33,5.95-.13,11.91-.16,17.87-.02,2.14,.05,3.36-.64,4.46-2.47,19.4-32.23,38.86-64.43,58.33-96.63,7.34-12.13,14.73-24.22,22.28-36.64,5.39,4.07,10.52,7.94,15.87,11.97,3.82-8.07,7.28-15.83,11.15-23.37,1.66-3.22,1.67-5.85,.13-9.12-12.46-26.53-24.75-53.14-37.11-79.71-.38-.82-.91-1.56-1.61-2.73Zm-197.64,194.24c-9.2-21.03-18.05-41.28-27.11-61.99-9.41,21.02-18.51,41.34-27.73,61.92-3.39-2.51-6.34-4.7-9.51-7.05-10.74,17.24-21.3,34.19-32.01,51.39h173.29c-17.25-33.82-34.32-67.31-51.66-101.31-8.51,19.2-16.75,37.8-25.28,57.05Z"/></svg>